<?xml version="1.0" encoding="UTF-8" standalone="no"?> <!-- Created with Vectornator for iOS (http://vectornator.io/) --><!DOCTYPE svg PUBLIC "-//W3C//DTD SVG 1.1//EN" "http://www.w3.org/Graphics/SVG/1.1/DTD/svg11.dtd">
<svg height="100%" style="fill-rule:nonzero;clip-rule:evenodd;stroke-linecap:round;stroke-linejoin:round;" xmlns:xlink="http://www.w3.org/1999/xlink" xmlns="http://www.w3.org/2000/svg" xml:space="preserve" width="100%" xmlns:vectornator="http://vectornator.io" version="1.1" viewBox="0 0 48 48">
<metadata>
<vectornator:setting key="DimensionsVisible" value="1"/>
<vectornator:setting key="PencilOnly" value="0"/>
<vectornator:setting key="SnapToPoints" value="0"/>
<vectornator:setting key="GuidesVisible" value="1"/>
<vectornator:setting key="CMYKEnabledKey" value="0"/>
<vectornator:setting key="RulersVisible" value="1"/>
<vectornator:setting key="OutlineMode" value="0"/>
<vectornator:setting key="SnapToEdges" value="0"/>
<vectornator:setting key="DisplayWhiteBackground" value="0"/>
<vectornator:setting key="doHistoryDisabled" value="0"/>
<vectornator:setting key="SnapToGuides" value="1"/>
<vectornator:setting key="TimeLapseWatermarkDisabled" value="0"/>
<vectornator:setting key="DynamicGuides" value="0"/>
<vectornator:setting key="SnapToGrid" value="0"/>
<vectornator:setting key="IsolateActiveLayer" value="0"/>
<vectornator:setting key="Units" value="Points"/>
</metadata>
<defs/>
<g id="Untitled" vectornator:layerName="Untitled">
<path d="M27.162+37.1123C27.113+37.9844+26.5767+41.7322+26.4743+42.4421L24.9314+42.4421L24.9314+47.8048L36.9976+47.8048L36.9976+42.4421L35.4516+42.4421C36.2577+41.1895+37.1305+40.3056+38.0117+39.4134C38.9651+38.4479+39.9282+37.4726+40.8271+36.0096C41.053+35.6421+41.2819+35.2888+41.5038+34.9465L41.5038+34.9465C42.3051+33.7102+43.0154+32.6143+43.1653+31.4827C43.3569+30.0377+43.6252+21.3537+43.1988+20.0305C42.7724+18.7074+40.1821+17.9209+39.2263+20.846C38.7546+22.2892+38.5787+24.1539+38.4192+25.8449L38.4191+25.845C38.2553+27.5811+38.1088+29.1342+37.6772+29.8611C36.8251+31.2957+34.1008+34.8513+34.1008+34.8513L36.4775+30.3809C36.4775+30.3809+36.8388+29.7626+36.6779+28.5729C36.5169+27.3832+35.1668+25.697+34.4923+27.0029C33.8178+28.3088+32.6603+29.4754+32.6603+29.4754L28.556+34.4135C28.556+34.4135+27.2163+36.1477+27.162+37.1123ZM20.5118+37.1124C20.5608+37.9845+21.0971+41.7322+21.1995+42.4422L22.7424+42.4422L22.7424+47.8049L10.6762+47.8049L10.6762+42.4422L12.2223+42.4422C11.4161+41.1896+10.5433+40.3057+9.66214+39.4135C8.7087+38.448+7.7456+37.4727+6.84671+36.0097C6.62078+35.6421+6.39189+35.289+6.16997+34.9466L6.16997+34.9466C5.36863+33.7103+4.6584+32.6144+4.50843+31.4829C4.31693+30.0378+4.04863+21.3537+4.47502+20.0307C4.90141+18.7075+7.49162+17.9211+8.44757+20.8461C8.9192+22.2893+9.09514+24.154+9.25464+25.845L9.25464+25.845C9.41852+27.5811+9.56496+29.1343+9.9966+29.8612C10.8487+31.2958+13.573+34.8514+13.573+34.8514L11.1963+30.381C11.1963+30.381+10.835+29.7627+10.996+28.573C11.1569+27.3833+12.507+25.6971+13.1815+27.003C13.856+28.3088+15.0135+29.4755+15.0135+29.4755L19.1178+34.4136C19.1178+34.4136+20.4575+36.1478+20.5118+37.1124Z" fill-rule="evenodd" fill="#ffffff" opacity="1"/>
<path d="M22.74+22.5837L22.74+26.8419C21.2948+26.5+19.8633+25.4782+18.6599+23.7399C18.4106+23.3798+18.1751+22.9937+17.9559+22.5837L22.74+22.5837ZM24.9338+22.5837L24.9338+26.8419C26.379+26.5+27.8105+25.4782+29.0139+23.7399C29.2632+23.3798+29.4987+22.9937+29.7179+22.5837L24.9338+22.5837ZM30.6557+20.3899L24.9338+20.3899L24.9338+16.0022L31.4832+16.0022C31.3901+17.583+31.0984+19.0621+30.6557+20.3899ZM32.1573+22.5837C31.8521+23.2721+31.5072+23.92+31.1273+24.5208C31.8724+23.955+32.5498+23.3045+33.1451+22.5837L32.1573+22.5837ZM34.5874+20.3899L32.9525+20.3899C33.3474+19.0221+33.5991+17.5466+33.6805+16.0022L35.8539+16.0022C35.7125+17.5706+35.2711+19.0524+34.5874+20.3899ZM22.74+20.3899L17.0181+20.3899C16.5754+19.0621+16.2837+17.583+16.1906+16.0022L22.74+16.0022L22.74+20.3899ZM14.7213+20.3899C14.3264+19.0221+14.0747+17.5466+13.9933+16.0022L11.8199+16.0022C11.9613+17.5706+12.4027+19.0524+13.0864+20.3899L14.7213+20.3899ZM14.5287+22.5837C15.124+23.3045+15.8014+23.955+16.5465+24.5208C16.1666+23.92+15.8217+23.2721+15.5165+22.5837L14.5287+22.5837ZM31.4832+13.8084L24.9338+13.8084L24.9338+9.42068L30.6557+9.42068C31.0984+10.7485+31.3901+12.2276+31.4832+13.8084ZM24.9338+2.9687L24.9338+7.22683L29.7179+7.22683C29.4987+6.81696+29.2632+6.43079+29.0139+6.07071C27.8105+4.3324+26.379+3.31061+24.9338+2.9687ZM33.6805+13.8084C33.5991+12.264+33.3474+10.7884+32.9525+9.42068L34.5874+9.42068C35.2711+10.7582+35.7125+12.24+35.8539+13.8084L33.6805+13.8084ZM32.1573+7.22683L33.1451+7.22683C32.5498+6.50604+31.8724+5.85558+31.1273+5.28973C31.5072+5.89055+31.8521+6.53851+32.1573+7.22683ZM17.9559+7.22683L22.74+7.22683L22.74+2.9687C21.2948+3.31061+19.8633+4.3324+18.6599+6.07071C18.4106+6.43079+18.1751+6.81696+17.9559+7.22683ZM22.74+9.42068L17.0181+9.42068C16.5754+10.7485+16.2837+12.2276+16.1906+13.8084L22.74+13.8084L22.74+9.42068ZM16.5465+5.28974C16.1666+5.89056+15.8217+6.53851+15.5165+7.22683L14.5287+7.22683C15.124+6.50604+15.8014+5.85558+16.5465+5.28974ZM14.7213+9.42068L13.0864+9.42068C12.4027+10.7582+11.9613+12.24+11.8199+13.8084L13.9933+13.8084C14.0747+12.264+14.3264+10.7884+14.7213+9.42068ZM23.8369+0.645298C31.7125+0.645298+38.0969+7.02971+38.0969+14.9053C38.0969+22.7809+31.7125+29.1653+23.8369+29.1653C15.9613+29.1653+9.57691+22.7809+9.57691+14.9053C9.57691+7.02971+15.9613+0.645298+23.8369+0.645298Z" fill-rule="evenodd" fill="#ffffff" opacity="1"/>
</g>
</svg>
