<?xml version="1.0" encoding="UTF-8" standalone="no"?> <!-- Created with Vectornator for iOS (http://vectornator.io/) --><!DOCTYPE svg PUBLIC "-//W3C//DTD SVG 1.1//EN" "http://www.w3.org/Graphics/SVG/1.1/DTD/svg11.dtd">
<svg height="100%" style="fill-rule:nonzero;clip-rule:evenodd;stroke-linecap:round;stroke-linejoin:round;" xmlns:xlink="http://www.w3.org/1999/xlink" xmlns="http://www.w3.org/2000/svg" xml:space="preserve" width="100%" xmlns:vectornator="http://vectornator.io" version="1.1" viewBox="0 0 48 48">
<metadata>
<vectornator:setting key="DimensionsVisible" value="1"/>
<vectornator:setting key="PencilOnly" value="0"/>
<vectornator:setting key="SnapToPoints" value="0"/>
<vectornator:setting key="GuidesVisible" value="1"/>
<vectornator:setting key="CMYKEnabledKey" value="0"/>
<vectornator:setting key="RulersVisible" value="1"/>
<vectornator:setting key="OutlineMode" value="0"/>
<vectornator:setting key="SnapToEdges" value="0"/>
<vectornator:setting key="DisplayWhiteBackground" value="0"/>
<vectornator:setting key="doHistoryDisabled" value="0"/>
<vectornator:setting key="SnapToGuides" value="1"/>
<vectornator:setting key="TimeLapseWatermarkDisabled" value="0"/>
<vectornator:setting key="DynamicGuides" value="0"/>
<vectornator:setting key="SnapToGrid" value="0"/>
<vectornator:setting key="IsolateActiveLayer" value="0"/>
<vectornator:setting key="Units" value="Points"/>
</metadata>
<defs/>
<g id="Untitled" vectornator:layerName="Untitled">
<path stroke="#ffffff" stroke-width="1" d="M27.9165+37.7602C27.8658+38.6611+27.3119+42.5322+27.2062+43.2655L25.6125+43.2655L25.6125+48.8048L38.0759+48.8048L38.0759+43.2655L36.479+43.2655C37.3117+41.9717+38.2132+41.0587+39.1234+40.1371C40.1082+39.1398+41.103+38.1324+42.0316+36.6213C42.2649+36.2416+42.5013+35.8767+42.7305+35.5231L42.7305+35.5231C43.5582+34.2461+44.2919+33.1142+44.4468+31.9453C44.6446+30.4526+44.9217+21.4827+44.4813+20.116C44.0409+18.7494+41.3653+17.937+40.378+20.9583C39.8908+22.4491+39.7091+24.3751+39.5443+26.1218L39.5442+26.1219C39.375+27.9152+39.2238+29.5195+38.7779+30.2702C37.8978+31.7521+35.0838+35.4248+35.0838+35.4248L37.5387+30.8072C37.5387+30.8072+37.9119+30.1685+37.7457+28.9397C37.5794+27.7108+36.1849+25.9691+35.4881+27.318C34.7914+28.6669+33.5959+29.8719+33.5959+29.8719L29.3564+34.9726C29.3564+34.9726+27.9726+36.7639+27.9165+37.7602ZM21.0473+37.7603C21.098+38.6612+21.6519+42.5322+21.7576+43.2656L23.3514+43.2656L23.3514+48.8049L10.8879+48.8049L10.8879+43.2656L12.4848+43.2656C11.6522+41.9718+10.7506+41.0588+9.84043+40.1372C8.85559+39.1399+7.86079+38.1325+6.93229+36.6214C6.69893+36.2416+6.4625+35.8768+6.23328+35.5232L6.23328+35.5232C5.40555+34.2462+4.67194+33.1143+4.51703+31.9454C4.31922+30.4528+4.04209+21.4827+4.48251+20.1162C4.92295+18.7495+7.59844+17.9371+8.58586+20.9585C9.07302+22.4492+9.25476+24.3752+9.41951+26.1219L9.41951+26.1219C9.58878+27.9152+9.74005+29.5196+10.1859+30.2703C11.066+31.7522+13.8801+35.4249+13.8801+35.4249L11.4251+30.8073C11.4251+30.8073+11.0519+30.1686+11.2182+28.9398C11.3844+27.7109+12.779+25.9692+13.4757+27.3181C14.1724+28.6669+15.368+29.872+15.368+29.872L19.6075+34.9727C19.6075+34.9727+20.9912+36.764+21.0473+37.7603Z" fill="none" stroke-linecap="round" opacity="1" stroke-linejoin="round"/>
<path stroke="#ffffff" stroke-width="1" d="M23.3489+22.7533L23.3489+27.1517C21.8561+26.7985+20.3775+25.7431+19.1344+23.9475C18.877+23.5756+18.6337+23.1767+18.4072+22.7533L23.3489+22.7533ZM25.615+22.7533L25.615+27.1517C27.1077+26.7985+28.5863+25.7431+29.8294+23.9475C30.0868+23.5756+30.3301+23.1767+30.5566+22.7533L25.615+22.7533ZM31.5252+20.4872L25.615+20.4872L25.615+15.9551L32.38+15.9551C32.2838+17.5879+31.9825+19.1157+31.5252+20.4872ZM33.0762+22.7533C32.761+23.4643+32.4048+24.1336+32.0123+24.7541C32.782+24.1697+33.4816+23.4978+34.0965+22.7533L33.0762+22.7533ZM35.5864+20.4872L33.8977+20.4872C34.3056+19.0744+34.5655+17.5503+34.6496+15.9551L36.8946+15.9551C36.7485+17.5751+36.2926+19.1057+35.5864+20.4872ZM23.3489+20.4872L17.4386+20.4872C16.9813+19.1157+16.68+17.5879+16.5838+15.9551L23.3489+15.9551L23.3489+20.4872ZM15.0661+20.4872C14.6582+19.0744+14.3983+17.5503+14.3142+15.9551L12.0692+15.9551C12.2153+17.5751+12.6712+19.1057+13.3774+20.4872L15.0661+20.4872ZM14.8673+22.7533C15.4822+23.4978+16.1818+24.1697+16.9515+24.7541C16.559+24.1336+16.2028+23.4643+15.8876+22.7533L14.8673+22.7533ZM32.38+13.689L25.615+13.689L25.615+9.15683L31.5252+9.15683C31.9825+10.5284+32.2838+12.0562+32.38+13.689ZM25.615+2.49241L25.615+6.89075L30.5566+6.89075C30.3301+6.46738+30.0868+6.0685+29.8294+5.69656C28.5863+3.90102+27.1077+2.84558+25.615+2.49241ZM34.6496+13.689C34.5655+12.0938+34.3056+10.5696+33.8977+9.15683L35.5864+9.15683C36.2926+10.5383+36.7485+12.069+36.8946+13.689L34.6496+13.689ZM33.0762+6.89075L34.0965+6.89075C33.4816+6.14623+32.782+5.47435+32.0123+4.88987C32.4048+5.51047+32.761+6.17977+33.0762+6.89075ZM18.4072+6.89075L23.3489+6.89075L23.3489+2.49241C21.8561+2.84558+20.3775+3.90102+19.1344+5.69656C18.877+6.0685+18.6337+6.46738+18.4072+6.89075ZM23.3489+9.15683L17.4386+9.15683C16.9813+10.5284+16.68+12.0562+16.5838+13.689L23.3489+13.689L23.3489+9.15683ZM16.9515+4.88988C16.559+5.51048+16.2028+6.17977+15.8876+6.89075L14.8673+6.89075C15.4822+6.14623+16.1818+5.47435+16.9515+4.88988ZM15.0661+9.15683L13.3774+9.15683C12.6712+10.5383+12.2153+12.069+12.0692+13.689L14.3142+13.689C14.3983+12.0938+14.6582+10.5696+15.0661+9.15683ZM24.4819+0.0925099C32.6168+0.0925099+39.2114+6.68714+39.2114+14.822C39.2114+22.9569+32.6168+29.5515+24.4819+29.5515C16.347+29.5515+9.7524+22.9569+9.7524+14.822C9.7524+6.68714+16.347+0.0925099+24.4819+0.0925099Z" fill="none" stroke-linecap="round" opacity="1" stroke-linejoin="round"/>
</g>
</svg>
