<?xml version="1.0" encoding="UTF-8" standalone="no"?> <!-- Created with Vectornator for iOS (http://vectornator.io/) --><!DOCTYPE svg PUBLIC "-//W3C//DTD SVG 1.1//EN" "http://www.w3.org/Graphics/SVG/1.1/DTD/svg11.dtd">
<svg height="100%" style="fill-rule:nonzero;clip-rule:evenodd;stroke-linecap:round;stroke-linejoin:round;" xmlns:xlink="http://www.w3.org/1999/xlink" xmlns="http://www.w3.org/2000/svg" xml:space="preserve" width="100%" xmlns:vectornator="http://vectornator.io" version="1.1" viewBox="0 0 24 24">
<metadata>
<vectornator:setting key="DimensionsVisible" value="1"/>
<vectornator:setting key="PencilOnly" value="0"/>
<vectornator:setting key="SnapToPoints" value="0"/>
<vectornator:setting key="OutlineMode" value="0"/>
<vectornator:setting key="RulersVisible" value="1"/>
<vectornator:setting key="CMYKEnabledKey" value="0"/>
<vectornator:setting key="SnapToEdges" value="0"/>
<vectornator:setting key="GuidesVisible" value="1"/>
<vectornator:setting key="DisplayWhiteBackground" value="0"/>
<vectornator:setting key="doHistoryDisabled" value="0"/>
<vectornator:setting key="SnapToGuides" value="1"/>
<vectornator:setting key="TimeLapseWatermarkDisabled" value="0"/>
<vectornator:setting key="DynamicGuides" value="0"/>
<vectornator:setting key="Units" value="Points"/>
<vectornator:setting key="SnapToGrid" value="0"/>
<vectornator:setting key="IsolateActiveLayer" value="0"/>
</metadata>
<defs/>
<g id="icons" vectornator:layerName="icons">
<path d="M22.2+14.4L21+13.7C19.7+12.9+19.7+11+21+10.2L22.2+9.5C23.2+8.9+23.5+7.7+22.9+6.8L21.9+5.1C21.3+4.1+20.1+3.8+19.2+4.4L18+5.1C16.7+5.9+15+4.9+15+3.4L15+2C15+0.9+14.1+0+13+0L11+0C9.9+0+9+0.9+9+2L9+3.3C9+4.8+7.3+5.8+6+5L4.8+4.4C3.8+3.8+2.6+4.2+2.1+5.1L1.1+6.8C0.6+7.8+0.9+9+1.8+9.6L3+10.3C4.3+11+4.3+13+3+13.7L1.8+14.4C0.8+15+0.5+16.2+1.1+17.1L2.1+18.8C2.7+19.8+3.9+20.1+4.8+19.5L6+18.9C7.3+18.1+9+19.1+9+20.6L9+22C9+23.1+9.9+24+11+24L13+24C14.1+24+15+23.1+15+22L15+20.7C15+19.2+16.7+18.2+18+19L19.2+19.7C20.2+20.3+21.4+19.9+21.9+19L22.9+17.3C23.4+16.2+23.1+15+22.2+14.4ZM12+16C9.8+16+8+14.2+8+12C8+9.8+9.8+8+12+8C14.2+8+16+9.8+16+12C16+14.2+14.2+16+12+16Z" opacity="1" fill="#ffffff"/>
</g>
</svg>
